<svg width="24" height="24" viewBox="0 0 24 24" fill="none" xmlns="http://www.w3.org/2000/svg"><path d="M12 21C11.088 21 10.2683 20.5265 9.80491 19.7336C9.61291 19.4032 9.72367 18.9795 10.0541 18.7866C10.3828 18.5946 10.8074 18.7053 11.0012 19.0358C11.4249 19.7622 12.5751 19.7622 12.9988 19.0358C13.1917 18.7053 13.6163 18.5946 13.9459 18.7866C14.2763 18.9786 14.388 19.4032 14.1951 19.7336C13.7317 20.5265 12.912 21 12 21ZM20.0078 17.8386C20.1231 17.5986 20.0908 17.3143 19.9256 17.1066C19.9081 17.0854 18.2262 14.944 18.2262 12.4619V9.22668C18.2262 5.79391 15.433 3.00081 12 3.00081C8.56705 3.00081 5.7738 5.79391 5.7738 9.22668V12.4619C5.7738 14.944 4.09193 17.0854 4.07439 17.1066C3.90916 17.3143 3.87686 17.5995 3.99225 17.8386C4.10763 18.0777 4.34947 18.2309 4.61532 18.2309H19.3847C19.6505 18.2309 19.8924 18.0777 20.0078 17.8386ZM7.15842 12.4619V9.22668C7.15842 6.55726 9.33044 4.38537 12 4.38537C14.6696 4.38537 16.8416 6.55726 16.8416 9.22668V12.4619C16.8416 14.2489 17.5339 15.8384 18.1044 16.8463H5.8947C6.46609 15.8384 7.15842 14.2489 7.15842 12.4619ZM4.38086 8.37749C4.53871 6.80002 5.17564 5.33886 6.22427 4.15183C6.47719 3.86477 6.44949 3.42726 6.16334 3.17435C5.87626 2.92051 5.43872 2.9482 5.1858 3.23526C3.94517 4.64104 3.19007 6.37173 3.00361 8.23996C2.96484 8.62025 3.24268 8.95992 3.62299 8.99777C3.64607 8.99961 3.67009 9.00147 3.69316 9.00147C4.04394 9.00055 4.34578 8.73378 4.38086 8.37749ZM20.377 8.99685C20.7573 8.95901 21.0352 8.61933 20.9964 8.23904C20.8099 6.37174 20.0548 4.64105 18.8142 3.23435C18.5622 2.94821 18.1237 2.91958 17.8367 3.17342C17.5496 3.42633 17.5228 3.86385 17.7757 4.15092C18.8234 5.33794 19.4613 6.79911 19.6191 8.37657C19.6551 8.73379 19.9561 8.99961 20.3068 8.99961C20.3299 9.00054 20.353 8.99962 20.377 8.99685Z" fill="currentColor"></path></svg>